<?xml version="1.0" standalone="no"?><!DOCTYPE svg PUBLIC "-//W3C//DTD SVG 1.1//EN" "http://www.w3.org/Graphics/SVG/1.1/DTD/svg11.dtd"><svg t="1686044443003" class="icon" viewBox="0 0 1024 1024" version="1.1" xmlns="http://www.w3.org/2000/svg" p-id="10445" xmlns:xlink="http://www.w3.org/1999/xlink" width="48" height="48"><path d="M128 896a21.333333 21.333333 0 0 1-21.333333-21.333333V21.333333a21.290667 21.290667 0 0 1 29.269333-19.797333l213.333333 85.333333c8.106667 3.242667 13.397333 11.050667 13.397334 19.797334v554.666666c0 5.674667-2.261333 11.093333-6.229334 15.104l-213.333333 213.333334A21.504 21.504 0 0 1 128 896z m21.333333-843.178667v770.346667l170.666667-170.666667V121.088l-170.666667-68.266667z" p-id="10446" fill="#1488ec"></path><path d="M341.333333 1024a21.461333 21.461333 0 0 1-10.965333-3.029333l-213.333333-128a21.376 21.376 0 0 1 0.597333-36.949334l768-426.666666a21.333333 21.333333 0 0 1 31.701333 18.645333v213.333333a21.333333 21.333333 0 0 1-10.154666 18.176l-554.666667 341.333334A21.418667 21.418667 0 0 1 341.333333 1024z m-170.666666-148.608l170.538666 102.314667L874.666667 649.429333V484.266667L170.666667 875.392z" p-id="10447" fill="#1488ec"></path><path d="M691.370667 583.04a21.546667 21.546667 0 0 1-7.850667-1.493333l-179.370667-71.04a21.290667 21.290667 0 0 1-11.946666-11.904l-85.333334-213.333334a21.333333 21.333333 0 0 1 27.093334-27.989333l469.333333 170.666667a21.333333 21.333333 0 0 1 3.072 38.698666l-204.629333 113.706667a21.248 21.248 0 0 1-10.368 2.688z m-162.986667-108.842667l161.450667 63.914667 154.922666-86.058667-380.586666-138.410666 64.213333 160.554666z" p-id="10448" fill="#1488ec"></path></svg>